# xmcd
#
# Track frame offsets: 
#        150
#        19595
#        36305
#        57235
#        76012
#        92621
#        115807
#        136104
#        154058
#        169313
#
# Disc length: 2552 seconds
#
# Revision: 0
# Processed by: cddbd v1.5.2PL0 Copyright (c) Steve Scherf et al.
# Submitted via: ExactAudioCopy v0.99pb4
#
DISCID=7109f60a
DTITLE=Kid Bangham - Somebody's Got To Suffer
DYEAR=2000
DGENRE=Blues
TTITLE0=Somebody's Got To Suffer
TTITLE1=Cash On The Line
TTITLE2=Jam It Good
TTITLE3=Complicated Girl
TTITLE4=Heartbreak Town
TTITLE5=Lookin' Back
TTITLE6=What About Me
TTITLE7=Can't Get Through To You
TTITLE8=I'll Pack My Suitcase
TTITLE9=Blues For The Road
EXTD=
EXTT0=
EXTT1=
EXTT2=
EXTT3=
EXTT4=
EXTT5=
EXTT6=
EXTT7=
EXTT8=
EXTT9=
PLAYORDER=
